<svg xmlns="http://www.w3.org/2000/svg" viewBox="0 0 471.54 252"><defs><style>.cls-1,.cls-3{fill:#062b3a;}.cls-2{fill:#fff;}.cls-3{font-size:68.9px;font-family:AgletMono-Bold, Aglet Mono;font-weight:700;}.cls-4{font-family:AgletMono-Regular, Aglet Mono;font-weight:400;}</style></defs><g id="Layer_2" data-name="Layer 2"><g id="Layer_1-2" data-name="Layer 1"><path class="cls-1" d="M192.38,43.52a1.83,1.83,0,0,0-1.82-1.82H169.28V40.48a14.61,14.61,0,0,0-14.59-14.59H129.35V1.82A1.83,1.83,0,0,0,127.53,0H42.19a11.76,11.76,0,0,0-7.74,2.92l-.22.17L34,3.34a3,3,0,0,0-.25.25L3.47,33.84A11.71,11.71,0,0,0,0,42.19V151.35a1.83,1.83,0,0,0,1.82,1.82H22.33v74.26A24.6,24.6,0,0,0,46.9,252h70.84a14.49,14.49,0,0,0,10.32-4.28l36.47-36.47a14.62,14.62,0,0,0,4.26-10.92c0-.21,0-.41,0-.61V177.46l20.29-20.29a2.31,2.31,0,0,0,.2-.24,11.73,11.73,0,0,0,3.08-7.93ZM75.22,85.31h31v81a1.83,1.83,0,0,0,1.83,1.83h44.33v29.79h-69a8.16,8.16,0,0,1-8.15-8.15ZM188.73,149a8.16,8.16,0,0,1-8.15,8.16h-56a8.16,8.16,0,0,1-8.15-8.16V112.05h31v17.74a1.82,1.82,0,0,0,1.82,1.82h6.6a1.82,1.82,0,0,0,1.82-1.82V77a1.83,1.83,0,0,0-1.82-1.83H117.36L128.2,45.35h60.53Zm-34-120.67a12.17,12.17,0,0,1,12.16,12.15V41.7H121.72l6.87-5,.22-.19,0,0,.17-.21.06-.09.11-.19a1,1,0,0,1,0-.1,1.4,1.4,0,0,0,.09-.29v0c0-.1,0-.21,0-.31v-7Zm-29-24.68v29.8H66.88a1.81,1.81,0,0,0-1.82,1.82v8.25a1.82,1.82,0,0,0,1.82,1.83h49.7L105.75,75.14H66.88A1.82,1.82,0,0,0,65.06,77v42.16H34V11.8a8.16,8.16,0,0,1,8.15-8.15Zm40.67,196.07c0,.18,0,.37,0,.55v.11a12.17,12.17,0,0,1-3.55,9.15L126.34,246a12.11,12.11,0,0,1-8.6,3.56H46.9a22.16,22.16,0,0,1-22.14-22.14V153.17H35.1v74.26a11.81,11.81,0,0,0,11.8,11.8h70.84a1.81,1.81,0,0,0,1.29-.53l36.48-36.48a1.81,1.81,0,0,0,.53-1.29V189.64a11.74,11.74,0,0,0,2.59-2l.09-.08,7.65-7.65Z"/><path class="cls-2" d="M65.06,119.13V77a1.82,1.82,0,0,1,1.82-1.83h38.87l10.83-29.79H66.88a1.82,1.82,0,0,1-1.82-1.83V35.27a1.81,1.81,0,0,1,1.82-1.82H125.7V3.65H42.19A8.16,8.16,0,0,0,34,11.8V119.13Z"/><path class="cls-2" d="M154.69,28.33H129.35v7c0,.1,0,.21,0,.31v0a1.4,1.4,0,0,1-.09.29,1,1,0,0,0,0,.1l-.11.19-.06.09-.17.21,0,0-.22.19-6.87,5h45.13V40.48A12.17,12.17,0,0,0,154.69,28.33Z"/><path class="cls-2" d="M128.2,45.35,117.36,75.14H155.9A1.83,1.83,0,0,1,157.72,77v52.82a1.82,1.82,0,0,1-1.82,1.82h-6.6a1.82,1.82,0,0,1-1.82-1.82V112.05h-31v37a8.16,8.16,0,0,0,8.15,8.16h56a8.16,8.16,0,0,0,8.15-8.16V45.35H128.2Z"/><path class="cls-2" d="M106.23,166.27v-81h-31V189.74a8.16,8.16,0,0,0,8.15,8.15h69V168.1H108.06A1.83,1.83,0,0,1,106.23,166.27Z"/><path class="cls-2" d="M24.76,153.17v74.26A22.16,22.16,0,0,0,46.9,249.57h70.84a12.11,12.11,0,0,0,8.6-3.56l36.47-36.48a12.17,12.17,0,0,0,3.55-9.15v-.11c0-.18,0-.37,0-.55V179.89l-7.65,7.65-.09.08a11.74,11.74,0,0,1-2.59,2v11.29a1.81,1.81,0,0,1-.53,1.29L119,238.7a1.81,1.81,0,0,1-1.29.53H46.9a11.81,11.81,0,0,1-11.8-11.8V153.17Z"/><text class="cls-3" transform="translate(223.52 90.73)">FABLAB<tspan class="cls-4"><tspan x="0" y="68.9">/ÁGORA</tspan></tspan></text></g></g></svg>