<svg xmlns="http://www.w3.org/2000/svg" viewBox="0 0 343.61 450.1"><g id="Layer_2" data-name="Layer 2"><g id="Layer_1-2" data-name="Layer 1"><path d="M343.61,77.74a3.26,3.26,0,0,0-3.25-3.26h-38V72.31a26.09,26.09,0,0,0-26.06-26.06H231v-43A3.26,3.26,0,0,0,227.78,0H75.36A21,21,0,0,0,61.53,5.21a3.89,3.89,0,0,0-.39.32L60.7,6c-.15.14-.3.29-.44.44L6.2,60.44A20.9,20.9,0,0,0,0,75.36v195a3.26,3.26,0,0,0,3.26,3.26H39.89V406.22A43.93,43.93,0,0,0,83.76,450.1H210.3a25.91,25.91,0,0,0,18.43-7.64l65.14-65.14a26.09,26.09,0,0,0,7.61-19.52q0-.54,0-1.08V317l36.24-36.24a3.73,3.73,0,0,0,.36-.43,21,21,0,0,0,5.5-14.15ZM134.35,152.37h55.39V297a3.26,3.26,0,0,0,3.26,3.26h79.19v53.22H148.91a14.57,14.57,0,0,1-14.56-14.56ZM337.1,266.14a14.57,14.57,0,0,1-14.56,14.56h-100A14.57,14.57,0,0,1,208,266.14v-66h55.39v31.68a3.26,3.26,0,0,0,3.26,3.26h11.78a3.25,3.25,0,0,0,3.25-3.26V137.47a3.24,3.24,0,0,0-3.25-3.25H209.62L229,81H337.1ZM276.29,50.59A21.74,21.74,0,0,1,298,72.31v2.17H217.4l12.28-8.84a4.24,4.24,0,0,0,.39-.33l.05-.06a3.68,3.68,0,0,0,.31-.38l.1-.15.19-.35.08-.18a3.13,3.13,0,0,0,.16-.52v-.05a3.43,3.43,0,0,0,.06-.56V50.59ZM224.52,6.51V59.74H119.45A3.26,3.26,0,0,0,116.2,63V77.74A3.26,3.26,0,0,0,119.45,81h88.78l-19.35,53.23H119.45a3.25,3.25,0,0,0-3.25,3.25v75.31H60.8V21.07A14.58,14.58,0,0,1,75.36,6.51Zm72.64,350.21c0,.33,0,.66,0,1v.19a21.76,21.76,0,0,1-6.34,16.35l-65.15,65.14a21.57,21.57,0,0,1-15.35,6.36H83.76a39.57,39.57,0,0,1-39.53-39.53V273.58H62.69V406.22a21.09,21.09,0,0,0,21.07,21.07H210.3a3.25,3.25,0,0,0,2.3-1l65.15-65.15a3.25,3.25,0,0,0,.95-2.3V338.72a21.29,21.29,0,0,0,4.64-3.61l.15-.14,13.67-13.67Z"/></g></g></svg>