<svg xmlns="http://www.w3.org/2000/svg" viewBox="0 0 343.5 449.95"><defs><style>.cls-1{fill:#062b3a;}.cls-2{fill:#fff;}</style></defs><g id="Layer_2" data-name="Layer 2"><g id="Layer_1-2" data-name="Layer 1"><path class="cls-1" d="M343.5,77.71a3.26,3.26,0,0,0-3.25-3.26h-38V72.28a26.08,26.08,0,0,0-26.05-26.05H231v-43A3.26,3.26,0,0,0,227.7,0H75.34A21,21,0,0,0,61.51,5.21a3.89,3.89,0,0,0-.39.32L60.68,6l-.44.44-54,54A20.94,20.94,0,0,0,0,75.34v194.9a3.25,3.25,0,0,0,3.26,3.25H39.87v132.6A43.91,43.91,0,0,0,83.73,450h126.5a25.88,25.88,0,0,0,18.42-7.63l65.13-65.12a26.15,26.15,0,0,0,7.61-19.51c0-.36,0-.73,0-1.09V316.86l36.23-36.23a3,3,0,0,0,.36-.43,21,21,0,0,0,5.5-14.15ZM134.31,152.32h55.37V296.89a3.26,3.26,0,0,0,3.26,3.25H272.1v53.21H148.86a14.57,14.57,0,0,1-14.55-14.56ZM337,266.05a14.57,14.57,0,0,1-14.55,14.56H222.51A14.57,14.57,0,0,1,208,266.05v-66h55.38v31.66a3.26,3.26,0,0,0,3.26,3.26h11.77a3.25,3.25,0,0,0,3.25-3.26V137.43a3.25,3.25,0,0,0-3.25-3.26h-68.8L228.9,81H337ZM276.21,50.58a21.72,21.72,0,0,1,21.7,21.7v2.17H217.33l12.28-8.83a3.17,3.17,0,0,0,.39-.34s0,0,.05,0,.21-.25.31-.38a1.3,1.3,0,0,1,.1-.15l.19-.35.07-.18a3.16,3.16,0,0,0,.17-.52v0a3.43,3.43,0,0,0,0-.56s0,0,0-.07V50.58ZM224.45,6.51V59.72h-105A3.26,3.26,0,0,0,116.16,63V77.71A3.26,3.26,0,0,0,119.42,81h88.74l-19.34,53.2h-69.4a3.26,3.26,0,0,0-3.26,3.26v75.28H60.78V21.07A14.57,14.57,0,0,1,75.34,6.51ZM297.07,356.6q0,.5,0,1v.2a21.78,21.78,0,0,1-6.33,16.34l-65.13,65.12a21.57,21.57,0,0,1-15.35,6.36H83.73a39.56,39.56,0,0,1-39.51-39.52V273.49H62.67v132.6a21.09,21.09,0,0,0,21.06,21.07h126.5a3.25,3.25,0,0,0,2.3-1l65.13-65.12a3.26,3.26,0,0,0,.95-2.31V338.61a21.24,21.24,0,0,0,4.64-3.6l.15-.15,13.67-13.66Z"/><path class="cls-2" d="M60.78,180.79v31.92h55.38V137.43a3.26,3.26,0,0,1,3.26-3.26h69.4L208.16,81H119.42a3.26,3.26,0,0,1-3.26-3.26V63a3.26,3.26,0,0,1,3.26-3.25h105V6.51H75.34A14.57,14.57,0,0,0,60.78,21.07V180.79"/><path class="cls-2" d="M276.21,50.58H231V63s0,.05,0,.07a3.43,3.43,0,0,1,0,.56v0a3.16,3.16,0,0,1-.17.52l-.07.18-.19.35a1.3,1.3,0,0,0-.1.15c-.1.13-.2.26-.31.38s0,0-.05,0a3.17,3.17,0,0,1-.39.34l-12.28,8.83h80.58V72.28A21.72,21.72,0,0,0,276.21,50.58Z"/><path class="cls-2" d="M228.9,81l-19.34,53.2h68.8a3.25,3.25,0,0,1,3.25,3.26v94.31a3.25,3.25,0,0,1-3.25,3.26H266.59a3.26,3.26,0,0,1-3.26-3.26V200.08H208v66a14.57,14.57,0,0,0,14.56,14.56h99.93A14.57,14.57,0,0,0,337,266.05V81H228.9Z"/><path class="cls-2" d="M189.68,296.89V152.32H134.31V338.79a14.57,14.57,0,0,0,14.55,14.56H272.1V300.14H192.94A3.26,3.26,0,0,1,189.68,296.89Z"/><path class="cls-2" d="M44.22,273.49v132.6a39.56,39.56,0,0,0,39.51,39.52h126.5a21.57,21.57,0,0,0,15.35-6.36l65.13-65.12A21.78,21.78,0,0,0,297,357.79v-.2q0-.49,0-1V321.2L283.4,334.86l-.15.15a21.24,21.24,0,0,1-4.64,3.6v20.16a3.26,3.26,0,0,1-.95,2.31L212.53,426.2a3.25,3.25,0,0,1-2.3,1H83.73a21.09,21.09,0,0,1-21.06-21.07V273.49Z"/></g></g></svg>