<svg width="566.87573" height="566.87" xmlns="http://www.w3.org/2000/svg">
 <metadata id="metadata49">image/svg+xml</metadata>

 <g>
  <title>background</title>
  <rect fill="none" id="canvas_background" height="568.87" width="568.87573" y="-1" x="-1"/>
 </g>
 <g>
  <title>Layer 1</title>
  <g id="g3">
   <path d="m218.001999,495.854864l0,-65.203c2.34,-0.895 4.623,-1.963 6.815,-3.257c31.087,-18.327 34.355,-70.395 7.293,-116.288c-27.059,-45.895 -74.196,-68.24 -105.282,-49.912c-31.087,18.329 -34.354,70.394 -7.297,116.288c4.366,7.403 9.258,14.182 14.517,20.287l0,48.439l-67.002,-38.344l0,-240.154l-23.485,-15.503c-21.394,38.979 -33.561,83.741 -33.561,131.343c0,147.904 117.359,268.317 264.08,273.177l0.025,-28.178l-56.103,-32.695z" fill="#000000" id="path5"/>
   <path d="m140.183999,114.245864l40.952,24.27c-0.807,6.729 -0.833,14.137 -0.807,16.684c0.375,36.085 49.245,63.517 102.52,62.965s91.219,-32.827 90.95,-64.58c-0.304,-36.084 -35.004,-64.336 -88.259,-65.924c-18.029,-0.538 -35.408,3.062 -43.322,4.574l-29.868,-19.106l71.037,-40.531l209.412,121.725l24.017,-13.183c-23.105,-37.99 -55.827,-70.867 -97.081,-94.619c-128.178,-73.797 -291.089,-32.17 -368.505,92.558l23.821,15.042l65.133,-39.875z" fill="#000000" id="path7"/>
   <path d="m499.864999,246.551864l-44.532,23.277c-1.614,-0.27 -11.499,-9.522 -13.723,-10.764c-31.526,-17.563 -77.938,5.659 -103.867,52.201c-25.93,46.54 -23.719,99.753 7.805,117.32c31.527,17.562 78.47,-3.509 104.403,-50.049c4.182,-7.508 9.767,-24.938 12.378,-32.559l37.938,-21.932l-0.225,83.273l-208.851,121.97l0.101,27.481c44.448,-1.233 89.223,-13.354 130.301,-37.406c127.63,-74.736 172.237,-236.855 102.294,-365.921l-24.022,13.191l0,79.918z" fill="#000000" id="path9"/>
  </g>
  <path stroke="#010101" d="m366.263,546.4839" fill="none" id="path11"/>
  <g id="svg_1" fill="#010101">
   <path d="m52.172,581.5569l53.562,0l0,16.25l-33.671,0l0,20.021l31.461,0l0,16.12l-31.461,0l0,35.231l-19.891,0l0,-87.622z" id="path15"/>
   <path d="m132.384,646.6879l-6.24,22.491l-20.541,0l26.781,-87.623l26.001,0l27.171,87.623l-21.321,0l-6.76,-22.491l-25.091,0zm22.231,-14.82l-5.46,-18.591c-1.56,-5.2 -3.12,-11.7 -4.42,-16.9l-0.26,0c-1.3,5.2 -2.6,11.83 -4.03,16.9l-5.2,18.591l19.37,0z" id="path17"/>
   <path d="m197.251,582.7269c5.2,-1.04 15.731,-1.82 25.611,-1.82c12.09,0 19.5,1.17 25.871,4.94c6.11,3.25 10.53,9.23 10.53,17.16c0,7.801 -4.55,15.081 -14.431,18.721l0,0.261c10.01,2.729 17.421,10.27 17.421,21.58c0,7.931 -3.641,14.171 -9.101,18.591c-6.37,5.07 -17.031,7.931 -34.451,7.931c-9.75,0 -17.031,-0.65 -21.451,-1.3l0,-86.064l0.001,0zm19.631,33.541l6.5,0c10.4,0 15.991,-4.29 15.991,-10.79c0,-6.631 -5.07,-10.141 -14.041,-10.141c-4.29,0 -6.76,0.26 -8.45,0.521l0,20.41zm0,38.871c1.95,0.261 4.29,0.261 7.67,0.261c8.97,0 16.901,-3.38 16.901,-12.61c0,-8.841 -7.931,-12.351 -17.811,-12.351l-6.76,0l0,24.7z" id="path19"/>
   <path d="m302.03,581.5569l19.891,0l0,70.982l34.842,0l0,16.641l-54.732,0l0,-87.623l-0.001,0z" id="path21"/>
   <path d="m389.649,646.6879l-6.24,22.491l-20.541,0l26.781,-87.623l26,0l27.172,87.623l-21.321,0l-6.761,-22.491l-25.09,0zm22.23,-14.82l-5.461,-18.591c-1.56,-5.2 -3.119,-11.7 -4.42,-16.9l-0.26,0c-1.3,5.2 -2.6,11.83 -4.03,16.9l-5.2,18.591l19.371,0z" id="path23"/>
   <path d="m454.516,582.7269c5.2,-1.04 15.73,-1.82 25.611,-1.82c12.09,0 19.501,1.17 25.871,4.94c6.11,3.25 10.53,9.23 10.53,17.16c0,7.801 -4.55,15.081 -14.431,18.721l0,0.261c10.011,2.729 17.421,10.27 17.421,21.58c0,7.931 -3.641,14.171 -9.101,18.591c-6.37,5.07 -17.03,7.931 -34.451,7.931c-9.75,0 -17.031,-0.65 -21.451,-1.3l0,-86.064l0.001,0zm19.631,33.541l6.5,0c10.4,0 15.991,-4.29 15.991,-10.79c0,-6.631 -5.07,-10.141 -14.041,-10.141c-4.29,0 -6.76,0.26 -8.45,0.521l0,20.41zm0,38.871c1.95,0.261 4.29,0.261 7.67,0.261c8.971,0 16.901,-3.38 16.901,-12.61c0,-8.841 -7.931,-12.351 -17.812,-12.351l-6.76,0l0,24.7l0.001,0z" id="path25"/>
  </g>
 </g>
</svg>